/* AUTO-GENERATED FILE – DO NOT EDIT
 *
 * Generated by createClipDataTsSource() in src/io/abletonClips.ts.
 */
import type { AbletonClipRawData } from '@/io/abletonClips';

export const clipData: Record<string, AbletonClipRawData> = {
  "1_sparse": {
    "name": "1_sparse",
    "duration": 16,
    "notes": [
      {
        "pitch": 81,
        "duration": 0.09755608974358974,
        "velocity": 74,
        "offVelocity": 0,
        "probability": 1,
        "position": 0.026398081085581084,
        "isEnabled": true
      },
      {
        "pitch": 50,
        "duration": 0.3168669871794872,
        "velocity": 2,
        "offVelocity": 0,
        "probability": 1,
        "position": 0.27187890234765233,
        "isEnabled": true
      },
      {
        "pitch": 46,
        "duration": 0.26145833333333335,
        "velocity": 54,
        "offVelocity": 0,
        "probability": 1,
        "position": 0.5283765713453213,
        "isEnabled": true
      },
      {
        "pitch": 83,
        "duration": 0.13806089743589745,
        "velocity": 67,
        "offVelocity": 0,
        "probability": 1,
        "position": 0.7769993027805527,
        "isEnabled": true
      },
      {
        "pitch": 87,
        "duration": 0.053766025641025644,
        "velocity": 29,
        "offVelocity": 0,
        "probability": 1,
        "position": 0.7776200362137862,
        "isEnabled": true
      },
      {
        "pitch": 46,
        "duration": 0.16510416666666666,
        "velocity": 43,
        "offVelocity": 0,
        "probability": 1,
        "position": 1.2980248917748918,
        "isEnabled": true
      },
      {
        "pitch": 81,
        "duration": 0.0985176282051282,
        "velocity": 92,
        "offVelocity": 0,
        "probability": 1,
        "position": 1.541216856060606,
        "isEnabled": true
      },
      {
        "pitch": 50,
        "duration": 0.2852964743589744,
        "velocity": 33,
        "offVelocity": 0,
        "probability": 1,
        "position": 1.8055116758241758,
        "isEnabled": true
      },
      {
        "pitch": 46,
        "duration": 0.24863782051282052,
        "velocity": 50,
        "offVelocity": 0,
        "probability": 1,
        "position": 2.0392383658008657,
        "isEnabled": true
      },
      {
        "pitch": 83,
        "duration": 0.14923878205128205,
        "velocity": 83,
        "offVelocity": 0,
        "probability": 1,
        "position": 2.3022532155344657,
        "isEnabled": true
      },
      {
        "pitch": 46,
        "duration": 0.1798477564102564,
        "velocity": 42,
        "offVelocity": 0,
        "probability": 1,
        "position": 2.791992642773893,
        "isEnabled": true
      },
      {
        "pitch": 81,
        "duration": 0.10544871794871795,
        "velocity": 85,
        "offVelocity": 0,
        "probability": 1,
        "position": 3.195264110889111,
        "isEnabled": true
      },
      {
        "pitch": 50,
        "duration": 0.12628205128205128,
        "velocity": 27,
        "offVelocity": 0,
        "probability": 1,
        "position": 3.3004297785547787,
        "isEnabled": true
      },
      {
        "pitch": 80,
        "duration": 0.08826121794871795,
        "velocity": 60,
        "offVelocity": 0,
        "probability": 1,
        "position": 3.550352251914752,
        "isEnabled": true
      },
      {
        "pitch": 46,
        "duration": 0.12540064102564102,
        "velocity": 48,
        "offVelocity": 0,
        "probability": 1,
        "position": 3.806520302614053,
        "isEnabled": true
      },
      {
        "pitch": 81,
        "duration": 0.11338141025641026,
        "velocity": 79,
        "offVelocity": 0,
        "probability": 1,
        "position": 4.191811573842823,
        "isEnabled": true
      },
      {
        "pitch": 50,
        "duration": 0.3184695512820513,
        "velocity": 21,
        "offVelocity": 0,
        "probability": 1,
        "position": 4.306733630952381,
        "isEnabled": true
      },
      {
        "pitch": 46,
        "duration": 0.03585737179487179,
        "velocity": 26,
        "offVelocity": 0,
        "probability": 1,
        "position": 4.716580554861805,
        "isEnabled": true
      },
      {
        "pitch": 85,
        "duration": 0.14254807692307692,
        "velocity": 32,
        "offVelocity": 0,
        "probability": 1,
        "position": 16.03646457708958,
        "isEnabled": true
      },
      {
        "pitch": 85,
        "duration": 0.1779647435897436,
        "velocity": 59,
        "offVelocity": 0,
        "probability": 1,
        "position": 16.97666630244755,
        "isEnabled": true
      },
      {
        "pitch": 85,
        "duration": 0.1346554487179487,
        "velocity": 64,
        "offVelocity": 0,
        "probability": 1,
        "position": 18.005042613636363,
        "isEnabled": true
      },
      {
        "pitch": 85,
        "duration": 0.15,
        "velocity": 78,
        "offVelocity": 0,
        "probability": 1,
        "position": 19.007292707292706,
        "isEnabled": true
      },
      {
        "pitch": 85,
        "duration": 0.1546474358974359,
        "velocity": 68,
        "offVelocity": 0,
        "probability": 1,
        "position": 20.00640037046287,
        "isEnabled": true
      },
      {
        "pitch": 85,
        "duration": 0.18986378205128204,
        "velocity": 69,
        "offVelocity": 0,
        "probability": 1,
        "position": 21.002501925158175,
        "isEnabled": true
      },
      {
        "pitch": 85,
        "duration": 0.16674679487179486,
        "velocity": 74,
        "offVelocity": 0,
        "probability": 1,
        "position": 22.00884428071928,
        "isEnabled": true
      },
      {
        "pitch": 85,
        "duration": 0.14475160256410258,
        "velocity": 72,
        "offVelocity": 0,
        "probability": 1,
        "position": 22.99710966117216,
        "isEnabled": true
      },
      {
        "pitch": 85,
        "duration": 0.09891826923076923,
        "velocity": 84,
        "offVelocity": 0,
        "probability": 1,
        "position": 24,
        "isEnabled": true
      },
      {
        "pitch": 87,
        "duration": 0.14743589743589744,
        "velocity": 75,
        "offVelocity": 0,
        "probability": 1,
        "position": 24.74070903055278,
        "isEnabled": true
      },
      {
        "pitch": 85,
        "duration": 0.09491185897435897,
        "velocity": 61,
        "offVelocity": 0,
        "probability": 1,
        "position": 27.98826512029637,
        "isEnabled": true
      },
      {
        "pitch": 87,
        "duration": 0.12047275641025641,
        "velocity": 84,
        "offVelocity": 0,
        "probability": 1,
        "position": 28.745519324425576,
        "isEnabled": true
      },
      {
        "pitch": 85,
        "duration": 0.09507211538461538,
        "velocity": 76,
        "offVelocity": 0,
        "probability": 1,
        "position": 30.991116175491175,
        "isEnabled": true
      },
      {
        "pitch": 85,
        "duration": 0.09891826923076923,
        "velocity": 84,
        "offVelocity": 0,
        "probability": 1,
        "position": 32,
        "isEnabled": true
      },
      {
        "pitch": 87,
        "duration": 0.14743589743589744,
        "velocity": 75,
        "offVelocity": 0,
        "probability": 1,
        "position": 32.74070903055278,
        "isEnabled": true
      },
      {
        "pitch": 85,
        "duration": 0.09491185897435897,
        "velocity": 61,
        "offVelocity": 0,
        "probability": 1,
        "position": 35.98826512029637,
        "isEnabled": true
      },
      {
        "pitch": 87,
        "duration": 0.12047275641025641,
        "velocity": 84,
        "offVelocity": 0,
        "probability": 1,
        "position": 36.74551932442557,
        "isEnabled": true
      },
      {
        "pitch": 85,
        "duration": 0.09507211538461538,
        "velocity": 76,
        "offVelocity": 0,
        "probability": 1,
        "position": 38.99111617549118,
        "isEnabled": true
      },
      {
        "pitch": 80,
        "duration": 0.1062099358974359,
        "velocity": 61,
        "offVelocity": 0,
        "probability": 1,
        "position": 39.47177822177822,
        "isEnabled": true
      }
    ]
  },
  "1_dense": {
    "name": "1_dense",
    "duration": 12,
    "notes": [
      {
        "pitch": 81,
        "duration": 0.09755608974358974,
        "velocity": 74,
        "offVelocity": 0,
        "probability": 1,
        "position": 0.026398081085581084,
        "isEnabled": true
      },
      {
        "pitch": 50,
        "duration": 0.3168669871794872,
        "velocity": 2,
        "offVelocity": 0,
        "probability": 1,
        "position": 0.27187890234765233,
        "isEnabled": true
      },
      {
        "pitch": 46,
        "duration": 0.26145833333333335,
        "velocity": 54,
        "offVelocity": 0,
        "probability": 1,
        "position": 0.5283765713453213,
        "isEnabled": true
      },
      {
        "pitch": 83,
        "duration": 0.13806089743589745,
        "velocity": 67,
        "offVelocity": 0,
        "probability": 1,
        "position": 0.7769993027805527,
        "isEnabled": true
      },
      {
        "pitch": 87,
        "duration": 0.053766025641025644,
        "velocity": 29,
        "offVelocity": 0,
        "probability": 1,
        "position": 0.7776200362137862,
        "isEnabled": true
      },
      {
        "pitch": 46,
        "duration": 0.16510416666666666,
        "velocity": 43,
        "offVelocity": 0,
        "probability": 1,
        "position": 1.2980248917748918,
        "isEnabled": true
      },
      {
        "pitch": 81,
        "duration": 0.0985176282051282,
        "velocity": 92,
        "offVelocity": 0,
        "probability": 1,
        "position": 1.541216856060606,
        "isEnabled": true
      },
      {
        "pitch": 50,
        "duration": 0.2852964743589744,
        "velocity": 33,
        "offVelocity": 0,
        "probability": 1,
        "position": 1.8055116758241758,
        "isEnabled": true
      },
      {
        "pitch": 46,
        "duration": 0.24863782051282052,
        "velocity": 50,
        "offVelocity": 0,
        "probability": 1,
        "position": 2.0392383658008657,
        "isEnabled": true
      },
      {
        "pitch": 83,
        "duration": 0.14923878205128205,
        "velocity": 83,
        "offVelocity": 0,
        "probability": 1,
        "position": 2.3022532155344657,
        "isEnabled": true
      },
      {
        "pitch": 46,
        "duration": 0.1798477564102564,
        "velocity": 42,
        "offVelocity": 0,
        "probability": 1,
        "position": 2.791992642773893,
        "isEnabled": true
      },
      {
        "pitch": 81,
        "duration": 0.10544871794871795,
        "velocity": 85,
        "offVelocity": 0,
        "probability": 1,
        "position": 3.195264110889111,
        "isEnabled": true
      },
      {
        "pitch": 50,
        "duration": 0.12628205128205128,
        "velocity": 27,
        "offVelocity": 0,
        "probability": 1,
        "position": 3.3004297785547787,
        "isEnabled": true
      },
      {
        "pitch": 80,
        "duration": 0.08826121794871795,
        "velocity": 60,
        "offVelocity": 0,
        "probability": 1,
        "position": 3.550352251914752,
        "isEnabled": true
      },
      {
        "pitch": 46,
        "duration": 0.12540064102564102,
        "velocity": 48,
        "offVelocity": 0,
        "probability": 1,
        "position": 3.806520302614053,
        "isEnabled": true
      },
      {
        "pitch": 81,
        "duration": 0.11338141025641026,
        "velocity": 79,
        "offVelocity": 0,
        "probability": 1,
        "position": 4.191811573842823,
        "isEnabled": true
      },
      {
        "pitch": 50,
        "duration": 0.3184695512820513,
        "velocity": 21,
        "offVelocity": 0,
        "probability": 1,
        "position": 4.306733630952381,
        "isEnabled": true
      },
      {
        "pitch": 46,
        "duration": 0.03585737179487179,
        "velocity": 26,
        "offVelocity": 0,
        "probability": 1,
        "position": 4.716580554861805,
        "isEnabled": true
      },
      {
        "pitch": 85,
        "duration": 0.14254807692307692,
        "velocity": 32,
        "offVelocity": 0,
        "probability": 1,
        "position": 16.03646457708958,
        "isEnabled": true
      },
      {
        "pitch": 85,
        "duration": 0.1779647435897436,
        "velocity": 59,
        "offVelocity": 0,
        "probability": 1,
        "position": 16.97666630244755,
        "isEnabled": true
      },
      {
        "pitch": 85,
        "duration": 0.1346554487179487,
        "velocity": 64,
        "offVelocity": 0,
        "probability": 1,
        "position": 18.005042613636363,
        "isEnabled": true
      },
      {
        "pitch": 85,
        "duration": 0.15,
        "velocity": 78,
        "offVelocity": 0,
        "probability": 1,
        "position": 19.007292707292706,
        "isEnabled": true
      },
      {
        "pitch": 85,
        "duration": 0.1546474358974359,
        "velocity": 68,
        "offVelocity": 0,
        "probability": 1,
        "position": 20.00640037046287,
        "isEnabled": true
      },
      {
        "pitch": 85,
        "duration": 0.18986378205128204,
        "velocity": 69,
        "offVelocity": 0,
        "probability": 1,
        "position": 21.002501925158175,
        "isEnabled": true
      },
      {
        "pitch": 85,
        "duration": 0.16674679487179486,
        "velocity": 74,
        "offVelocity": 0,
        "probability": 1,
        "position": 22.00884428071928,
        "isEnabled": true
      },
      {
        "pitch": 85,
        "duration": 0.14475160256410258,
        "velocity": 72,
        "offVelocity": 0,
        "probability": 1,
        "position": 22.99710966117216,
        "isEnabled": true
      },
      {
        "pitch": 85,
        "duration": 0.07158882783882783,
        "velocity": 84,
        "offVelocity": 0,
        "probability": 1,
        "position": 24,
        "isEnabled": true
      },
      {
        "pitch": 50,
        "duration": 0.31951121794871795,
        "velocity": 1,
        "offVelocity": 0,
        "probability": 1,
        "position": 24.211556672494172,
        "isEnabled": true
      },
      {
        "pitch": 46,
        "duration": 0.2248798076923077,
        "velocity": 42,
        "offVelocity": 0,
        "probability": 1,
        "position": 24.47431917041292,
        "isEnabled": true
      },
      {
        "pitch": 87,
        "duration": 0.14743589743589744,
        "velocity": 75,
        "offVelocity": 0,
        "probability": 1,
        "position": 24.74070903055278,
        "isEnabled": true
      },
      {
        "pitch": 46,
        "duration": 0.1639423076923077,
        "velocity": 23,
        "offVelocity": 0,
        "probability": 1,
        "position": 25.239370785464537,
        "isEnabled": true
      },
      {
        "pitch": 85,
        "duration": 0.10020032051282052,
        "velocity": 79,
        "offVelocity": 0,
        "probability": 1,
        "position": 25.500174304861805,
        "isEnabled": true
      },
      {
        "pitch": 50,
        "duration": 0.2939903846153846,
        "velocity": 18,
        "offVelocity": 0,
        "probability": 1,
        "position": 25.736364156676657,
        "isEnabled": true
      },
      {
        "pitch": 46,
        "duration": 0.18249198717948717,
        "velocity": 42,
        "offVelocity": 0,
        "probability": 1,
        "position": 25.991329763986013,
        "isEnabled": true
      },
      {
        "pitch": 87,
        "duration": 0.13321314102564102,
        "velocity": 78,
        "offVelocity": 0,
        "probability": 1,
        "position": 26.242551719114218,
        "isEnabled": true
      },
      {
        "pitch": 46,
        "duration": 0.13405448717948718,
        "velocity": 35,
        "offVelocity": 0,
        "probability": 1,
        "position": 26.730642534548785,
        "isEnabled": true
      },
      {
        "pitch": 85,
        "duration": 0.09094551282051282,
        "velocity": 71,
        "offVelocity": 0,
        "probability": 1,
        "position": 27.002986856893106,
        "isEnabled": true
      },
      {
        "pitch": 50,
        "duration": 0.06334134615384615,
        "velocity": 9,
        "offVelocity": 0,
        "probability": 1,
        "position": 27.257990967365966,
        "isEnabled": true
      },
      {
        "pitch": 46,
        "duration": 0.04122596153846154,
        "velocity": 25,
        "offVelocity": 0,
        "probability": 1,
        "position": 27.267126623376623,
        "isEnabled": true
      },
      {
        "pitch": 80,
        "duration": 0.11610576923076923,
        "velocity": 73,
        "offVelocity": 0,
        "probability": 1,
        "position": 27.49127148892774,
        "isEnabled": true
      },
      {
        "pitch": 46,
        "duration": 0.11854967948717948,
        "velocity": 42,
        "offVelocity": 0,
        "probability": 1,
        "position": 27.744336132617384,
        "isEnabled": true
      },
      {
        "pitch": 85,
        "duration": 0.09491185897435897,
        "velocity": 61,
        "offVelocity": 0,
        "probability": 1,
        "position": 27.98826512029637,
        "isEnabled": true
      },
      {
        "pitch": 50,
        "duration": 0.3350160256410256,
        "velocity": 33,
        "offVelocity": 0,
        "probability": 1,
        "position": 28.237683150183152,
        "isEnabled": true
      },
      {
        "pitch": 46,
        "duration": 0.19643429487179487,
        "velocity": 54,
        "offVelocity": 0,
        "probability": 1,
        "position": 28.507990967365966,
        "isEnabled": true
      },
      {
        "pitch": 87,
        "duration": 0.12047275641025641,
        "velocity": 84,
        "offVelocity": 0,
        "probability": 1,
        "position": 28.745519324425576,
        "isEnabled": true
      },
      {
        "pitch": 46,
        "duration": 0.1719150641025641,
        "velocity": 39,
        "offVelocity": 0,
        "probability": 1,
        "position": 29.223485368797867,
        "isEnabled": true
      },
      {
        "pitch": 85,
        "duration": 0.08008814102564103,
        "velocity": 57,
        "offVelocity": 0,
        "probability": 1,
        "position": 29.503626581751583,
        "isEnabled": true
      },
      {
        "pitch": 50,
        "duration": 0.284775641025641,
        "velocity": 28,
        "offVelocity": 0,
        "probability": 1,
        "position": 29.74672176781552,
        "isEnabled": true
      },
      {
        "pitch": 46,
        "duration": 0.1779647435897436,
        "velocity": 51,
        "offVelocity": 0,
        "probability": 1,
        "position": 29.995538576007327,
        "isEnabled": true
      },
      {
        "pitch": 87,
        "duration": 0.14338942307692307,
        "velocity": 80,
        "offVelocity": 0,
        "probability": 1,
        "position": 30.23871102855478,
        "isEnabled": true
      },
      {
        "pitch": 46,
        "duration": 0.14731570512820513,
        "velocity": 44,
        "offVelocity": 0,
        "probability": 1,
        "position": 30.733997773060274,
        "isEnabled": true
      },
      {
        "pitch": 85,
        "duration": 0.09507211538461538,
        "velocity": 76,
        "offVelocity": 0,
        "probability": 1,
        "position": 30.991116175491175,
        "isEnabled": true
      },
      {
        "pitch": 46,
        "duration": 0.15268429487179488,
        "velocity": 42,
        "offVelocity": 0,
        "probability": 1,
        "position": 31.22001332001332,
        "isEnabled": true
      },
      {
        "pitch": 80,
        "duration": 0.1062099358974359,
        "velocity": 61,
        "offVelocity": 0,
        "probability": 1,
        "position": 31.471778221778223,
        "isEnabled": true
      },
      {
        "pitch": 46,
        "duration": 0.14751602564102564,
        "velocity": 40,
        "offVelocity": 0,
        "probability": 1,
        "position": 31.72061454170829,
        "isEnabled": true
      },
      {
        "pitch": 85,
        "duration": 0.10204326923076923,
        "velocity": 83,
        "offVelocity": 0,
        "probability": 1,
        "position": 31.97907118922744,
        "isEnabled": true
      },
      {
        "pitch": 50,
        "duration": 0.33525641025641023,
        "velocity": 33,
        "offVelocity": 0,
        "probability": 1,
        "position": 32.22119651182151,
        "isEnabled": true
      },
      {
        "pitch": 46,
        "duration": 0.20240384615384616,
        "velocity": 32,
        "offVelocity": 0,
        "probability": 1,
        "position": 32.48715945512821,
        "isEnabled": true
      },
      {
        "pitch": 87,
        "duration": 0.12868589743589742,
        "velocity": 88,
        "offVelocity": 0,
        "probability": 1,
        "position": 32.73609255328005,
        "isEnabled": true
      },
      {
        "pitch": 46,
        "duration": 0.1346955128205128,
        "velocity": 30,
        "offVelocity": 0,
        "probability": 1,
        "position": 33.21460180444556,
        "isEnabled": true
      },
      {
        "pitch": 85,
        "duration": 0.09755608974358974,
        "velocity": 79,
        "offVelocity": 0,
        "probability": 1,
        "position": 33.48758611180486,
        "isEnabled": true
      },
      {
        "pitch": 50,
        "duration": 0.26474358974358975,
        "velocity": 11,
        "offVelocity": 0,
        "probability": 1,
        "position": 33.737605623543125,
        "isEnabled": true
      },
      {
        "pitch": 46,
        "duration": 0.1642227564102564,
        "velocity": 48,
        "offVelocity": 0,
        "probability": 1,
        "position": 33.98046770937396,
        "isEnabled": true
      },
      {
        "pitch": 87,
        "duration": 0.1372596153846154,
        "velocity": 73,
        "offVelocity": 0,
        "probability": 1,
        "position": 34.22381498709624,
        "isEnabled": true
      },
      {
        "pitch": 46,
        "duration": 0.14202724358974358,
        "velocity": 44,
        "offVelocity": 0,
        "probability": 1,
        "position": 34.71768569971695,
        "isEnabled": true
      },
      {
        "pitch": 85,
        "duration": 0.09819711538461538,
        "velocity": 84,
        "offVelocity": 0,
        "probability": 1,
        "position": 34.98170917624043,
        "isEnabled": true
      },
      {
        "pitch": 46,
        "duration": 0.09947916666666666,
        "velocity": 38,
        "offVelocity": 0,
        "probability": 1,
        "position": 35.23395900974026,
        "isEnabled": true
      },
      {
        "pitch": 80,
        "duration": 0.10360576923076924,
        "velocity": 75,
        "offVelocity": 0,
        "probability": 1,
        "position": 35.467976554695305,
        "isEnabled": true
      },
      {
        "pitch": 46,
        "duration": 0.13806089743589745,
        "velocity": 40,
        "offVelocity": 0,
        "probability": 1,
        "position": 35.72542483558109,
        "isEnabled": true
      },
      {
        "pitch": 85,
        "duration": 0.08846153846153847,
        "velocity": 68,
        "offVelocity": 0,
        "probability": 1,
        "position": 35.968597288128535,
        "isEnabled": true
      },
      {
        "pitch": 50,
        "duration": 0.3172275641025641,
        "velocity": 34,
        "offVelocity": 0,
        "probability": 1,
        "position": 36.206377736846484,
        "isEnabled": true
      },
      {
        "pitch": 46,
        "duration": 0.20532852564102563,
        "velocity": 42,
        "offVelocity": 0,
        "probability": 1,
        "position": 36.46919850982351,
        "isEnabled": true
      },
      {
        "pitch": 87,
        "duration": 0.1422676282051282,
        "velocity": 82,
        "offVelocity": 0,
        "probability": 1,
        "position": 36.70059783966034,
        "isEnabled": true
      },
      {
        "pitch": 46,
        "duration": 0.18193108974358974,
        "velocity": 31,
        "offVelocity": 0,
        "probability": 1,
        "position": 37.05302848193473,
        "isEnabled": true
      },
      {
        "pitch": 85,
        "duration": 0.09747596153846154,
        "velocity": 78,
        "offVelocity": 0,
        "probability": 1,
        "position": 37.45823967698968,
        "isEnabled": true
      },
      {
        "pitch": 50,
        "duration": 0.25060096153846156,
        "velocity": 27,
        "offVelocity": 0,
        "probability": 1,
        "position": 37.720730831668334,
        "isEnabled": true
      },
      {
        "pitch": 46,
        "duration": 0.19635416666666666,
        "velocity": 43,
        "offVelocity": 0,
        "probability": 1,
        "position": 37.95676563020313,
        "isEnabled": true
      },
      {
        "pitch": 87,
        "duration": 0.13657852564102563,
        "velocity": 76,
        "offVelocity": 0,
        "probability": 1,
        "position": 38.219450861638364,
        "isEnabled": true
      },
      {
        "pitch": 46,
        "duration": 0.12475961538461539,
        "velocity": 32,
        "offVelocity": 0,
        "probability": 1,
        "position": 38.699259334415586,
        "isEnabled": true
      },
      {
        "pitch": 85,
        "duration": 0.10300480769230769,
        "velocity": 73,
        "offVelocity": 0,
        "probability": 1,
        "position": 38.97220487845488,
        "isEnabled": true
      },
      {
        "pitch": 50,
        "duration": 0.15136217948717948,
        "velocity": 38,
        "offVelocity": 0,
        "probability": 1,
        "position": 39.219082219863466,
        "isEnabled": true
      },
      {
        "pitch": 80,
        "duration": 0.06306089743589743,
        "velocity": 69,
        "offVelocity": 0,
        "probability": 1,
        "position": 39.50738948551449,
        "isEnabled": true
      },
      {
        "pitch": 46,
        "duration": 0.13052884615384616,
        "velocity": 45,
        "offVelocity": 0,
        "probability": 1,
        "position": 39.73025438103563,
        "isEnabled": true
      }
    ]
  },
  "clip_4_1": {
    "name": "clip_4_1",
    "duration": 32,
    "notes": [
      {
        "pitch": 50,
        "duration": 2,
        "velocity": 100,
        "offVelocity": 64,
        "probability": 1,
        "position": 0,
        "isEnabled": true
      },
      {
        "pitch": 54,
        "duration": 2,
        "velocity": 100,
        "offVelocity": 64,
        "probability": 1,
        "position": 0,
        "isEnabled": true
      },
      {
        "pitch": 57,
        "duration": 2,
        "velocity": 100,
        "offVelocity": 64,
        "probability": 1,
        "position": 0,
        "isEnabled": true
      },
      {
        "pitch": 61,
        "duration": 2,
        "velocity": 100,
        "offVelocity": 64,
        "probability": 1,
        "position": 0,
        "isEnabled": true
      },
      {
        "pitch": 51,
        "duration": 2,
        "velocity": 100,
        "offVelocity": 64,
        "probability": 1,
        "position": 2,
        "isEnabled": true
      },
      {
        "pitch": 55,
        "duration": 2,
        "velocity": 98,
        "offVelocity": 64,
        "probability": 1,
        "position": 2,
        "isEnabled": true
      },
      {
        "pitch": 58,
        "duration": 2,
        "velocity": 100,
        "offVelocity": 64,
        "probability": 1,
        "position": 2,
        "isEnabled": true
      },
      {
        "pitch": 60,
        "duration": 2,
        "velocity": 100,
        "offVelocity": 64,
        "probability": 1,
        "position": 2,
        "isEnabled": true
      },
      {
        "pitch": 55,
        "duration": 2,
        "velocity": 98,
        "offVelocity": 64,
        "probability": 1,
        "position": 4,
        "isEnabled": true
      },
      {
        "pitch": 58,
        "duration": 2,
        "velocity": 100,
        "offVelocity": 64,
        "probability": 1,
        "position": 4,
        "isEnabled": true
      },
      {
        "pitch": 60,
        "duration": 2,
        "velocity": 100,
        "offVelocity": 64,
        "probability": 1,
        "position": 4,
        "isEnabled": true
      },
      {
        "pitch": 63,
        "duration": 2,
        "velocity": 100,
        "offVelocity": 64,
        "probability": 1,
        "position": 4,
        "isEnabled": true
      },
      {
        "pitch": 57,
        "duration": 2,
        "velocity": 100,
        "offVelocity": 64,
        "probability": 1,
        "position": 6,
        "isEnabled": true
      },
      {
        "pitch": 59,
        "duration": 2,
        "velocity": 100,
        "offVelocity": 64,
        "probability": 1,
        "position": 6,
        "isEnabled": true
      },
      {
        "pitch": 62,
        "duration": 2,
        "velocity": 100,
        "offVelocity": 64,
        "probability": 1,
        "position": 6,
        "isEnabled": true
      },
      {
        "pitch": 66,
        "duration": 2,
        "velocity": 98,
        "offVelocity": 64,
        "probability": 1,
        "position": 6,
        "isEnabled": true
      },
      {
        "pitch": 54,
        "duration": 2,
        "velocity": 100,
        "offVelocity": 64,
        "probability": 1,
        "position": 8,
        "isEnabled": true
      },
      {
        "pitch": 57,
        "duration": 2,
        "velocity": 100,
        "offVelocity": 64,
        "probability": 1,
        "position": 8,
        "isEnabled": true
      },
      {
        "pitch": 61,
        "duration": 2,
        "velocity": 100,
        "offVelocity": 64,
        "probability": 1,
        "position": 8,
        "isEnabled": true
      },
      {
        "pitch": 62,
        "duration": 2,
        "velocity": 100,
        "offVelocity": 64,
        "probability": 1,
        "position": 8,
        "isEnabled": true
      },
      {
        "pitch": 51,
        "duration": 2,
        "velocity": 100,
        "offVelocity": 64,
        "probability": 1,
        "position": 10,
        "isEnabled": true
      },
      {
        "pitch": 55,
        "duration": 2,
        "velocity": 98,
        "offVelocity": 64,
        "probability": 1,
        "position": 10,
        "isEnabled": true
      },
      {
        "pitch": 58,
        "duration": 2,
        "velocity": 100,
        "offVelocity": 64,
        "probability": 1,
        "position": 10,
        "isEnabled": true
      },
      {
        "pitch": 60,
        "duration": 2,
        "velocity": 100,
        "offVelocity": 64,
        "probability": 1,
        "position": 10,
        "isEnabled": true
      },
      {
        "pitch": 48,
        "duration": 2,
        "velocity": 100,
        "offVelocity": 64,
        "probability": 1,
        "position": 12,
        "isEnabled": true
      },
      {
        "pitch": 51,
        "duration": 2,
        "velocity": 100,
        "offVelocity": 64,
        "probability": 1,
        "position": 12,
        "isEnabled": true
      },
      {
        "pitch": 55,
        "duration": 2,
        "velocity": 98,
        "offVelocity": 64,
        "probability": 1,
        "position": 12,
        "isEnabled": true
      },
      {
        "pitch": 58,
        "duration": 2,
        "velocity": 100,
        "offVelocity": 64,
        "probability": 1,
        "position": 12,
        "isEnabled": true
      },
      {
        "pitch": 47,
        "duration": 2,
        "velocity": 100,
        "offVelocity": 64,
        "probability": 1,
        "position": 14,
        "isEnabled": true
      },
      {
        "pitch": 50,
        "duration": 2,
        "velocity": 100,
        "offVelocity": 64,
        "probability": 1,
        "position": 14,
        "isEnabled": true
      },
      {
        "pitch": 54,
        "duration": 2,
        "velocity": 98,
        "offVelocity": 64,
        "probability": 1,
        "position": 14,
        "isEnabled": true
      },
      {
        "pitch": 57,
        "duration": 2,
        "velocity": 100,
        "offVelocity": 64,
        "probability": 1,
        "position": 14,
        "isEnabled": true
      },
      {
        "pitch": 45,
        "duration": 2,
        "velocity": 100,
        "offVelocity": 64,
        "probability": 1,
        "position": 16,
        "isEnabled": true
      },
      {
        "pitch": 49,
        "duration": 2,
        "velocity": 100,
        "offVelocity": 64,
        "probability": 1,
        "position": 16,
        "isEnabled": true
      },
      {
        "pitch": 50,
        "duration": 2,
        "velocity": 100,
        "offVelocity": 64,
        "probability": 1,
        "position": 16,
        "isEnabled": true
      },
      {
        "pitch": 54,
        "duration": 2,
        "velocity": 100,
        "offVelocity": 64,
        "probability": 1,
        "position": 16,
        "isEnabled": true
      },
      {
        "pitch": 43,
        "duration": 2,
        "velocity": 98,
        "offVelocity": 64,
        "probability": 1,
        "position": 18,
        "isEnabled": true
      },
      {
        "pitch": 46,
        "duration": 2,
        "velocity": 100,
        "offVelocity": 64,
        "probability": 1,
        "position": 18,
        "isEnabled": true
      },
      {
        "pitch": 48,
        "duration": 2,
        "velocity": 100,
        "offVelocity": 64,
        "probability": 1,
        "position": 18,
        "isEnabled": true
      },
      {
        "pitch": 51,
        "duration": 2,
        "velocity": 100,
        "offVelocity": 64,
        "probability": 1,
        "position": 18,
        "isEnabled": true
      },
      {
        "pitch": 46,
        "duration": 2,
        "velocity": 100,
        "offVelocity": 64,
        "probability": 1,
        "position": 20,
        "isEnabled": true
      },
      {
        "pitch": 48,
        "duration": 2,
        "velocity": 100,
        "offVelocity": 64,
        "probability": 1,
        "position": 20,
        "isEnabled": true
      },
      {
        "pitch": 51,
        "duration": 2,
        "velocity": 100,
        "offVelocity": 64,
        "probability": 1,
        "position": 20,
        "isEnabled": true
      },
      {
        "pitch": 55,
        "duration": 2,
        "velocity": 98,
        "offVelocity": 64,
        "probability": 1,
        "position": 20,
        "isEnabled": true
      },
      {
        "pitch": 47,
        "duration": 2,
        "velocity": 100,
        "offVelocity": 64,
        "probability": 1,
        "position": 22,
        "isEnabled": true
      },
      {
        "pitch": 50,
        "duration": 2,
        "velocity": 100,
        "offVelocity": 64,
        "probability": 1,
        "position": 22,
        "isEnabled": true
      },
      {
        "pitch": 54,
        "duration": 2,
        "velocity": 98,
        "offVelocity": 64,
        "probability": 1,
        "position": 22,
        "isEnabled": true
      },
      {
        "pitch": 57,
        "duration": 2,
        "velocity": 100,
        "offVelocity": 64,
        "probability": 1,
        "position": 22,
        "isEnabled": true
      },
      {
        "pitch": 50,
        "duration": 2,
        "velocity": 100,
        "offVelocity": 64,
        "probability": 1,
        "position": 24,
        "isEnabled": true
      },
      {
        "pitch": 54,
        "duration": 2,
        "velocity": 100,
        "offVelocity": 64,
        "probability": 1,
        "position": 24,
        "isEnabled": true
      },
      {
        "pitch": 57,
        "duration": 2,
        "velocity": 100,
        "offVelocity": 64,
        "probability": 1,
        "position": 24,
        "isEnabled": true
      },
      {
        "pitch": 61,
        "duration": 2,
        "velocity": 100,
        "offVelocity": 64,
        "probability": 1,
        "position": 24,
        "isEnabled": true
      },
      {
        "pitch": 48,
        "duration": 2,
        "velocity": 100,
        "offVelocity": 64,
        "probability": 1,
        "position": 26,
        "isEnabled": true
      },
      {
        "pitch": 51,
        "duration": 2,
        "velocity": 100,
        "offVelocity": 64,
        "probability": 1,
        "position": 26,
        "isEnabled": true
      },
      {
        "pitch": 55,
        "duration": 2,
        "velocity": 98,
        "offVelocity": 64,
        "probability": 1,
        "position": 26,
        "isEnabled": true
      },
      {
        "pitch": 58,
        "duration": 2,
        "velocity": 100,
        "offVelocity": 64,
        "probability": 1,
        "position": 26,
        "isEnabled": true
      },
      {
        "pitch": 46,
        "duration": 2,
        "velocity": 100,
        "offVelocity": 64,
        "probability": 1,
        "position": 28,
        "isEnabled": true
      },
      {
        "pitch": 48,
        "duration": 2,
        "velocity": 100,
        "offVelocity": 64,
        "probability": 1,
        "position": 28,
        "isEnabled": true
      },
      {
        "pitch": 51,
        "duration": 2,
        "velocity": 100,
        "offVelocity": 64,
        "probability": 1,
        "position": 28,
        "isEnabled": true
      },
      {
        "pitch": 55,
        "duration": 2,
        "velocity": 98,
        "offVelocity": 64,
        "probability": 1,
        "position": 28,
        "isEnabled": true
      },
      {
        "pitch": 47,
        "duration": 2,
        "velocity": 100,
        "offVelocity": 64,
        "probability": 1,
        "position": 30,
        "isEnabled": true
      },
      {
        "pitch": 50,
        "duration": 2,
        "velocity": 100,
        "offVelocity": 64,
        "probability": 1,
        "position": 30,
        "isEnabled": true
      },
      {
        "pitch": 54,
        "duration": 2,
        "velocity": 98,
        "offVelocity": 64,
        "probability": 1,
        "position": 30,
        "isEnabled": true
      },
      {
        "pitch": 57,
        "duration": 2,
        "velocity": 100,
        "offVelocity": 64,
        "probability": 1,
        "position": 30,
        "isEnabled": true
      }
    ]
  },
  "debug1": {
    "name": "debug1",
    "duration": 4,
    "notes": [
      {
        "pitch": 0,
        "duration": 1,
        "velocity": 100,
        "offVelocity": 64,
        "probability": 1,
        "position": 0,
        "isEnabled": false
      },
      {
        "pitch": 55,
        "duration": 0.25,
        "velocity": 100,
        "offVelocity": 64,
        "probability": 1,
        "position": 0,
        "isEnabled": true
      },
      {
        "pitch": 57,
        "duration": 0.25,
        "velocity": 100,
        "offVelocity": 64,
        "probability": 1,
        "position": 0.25,
        "isEnabled": true
      },
      {
        "pitch": 59,
        "duration": 0.25,
        "velocity": 100,
        "offVelocity": 64,
        "probability": 1,
        "position": 0.5,
        "isEnabled": true
      },
      {
        "pitch": 60,
        "duration": 0.25,
        "velocity": 100,
        "offVelocity": 64,
        "probability": 1,
        "position": 0.75,
        "isEnabled": true
      },
      {
        "pitch": 0,
        "duration": 1,
        "velocity": 100,
        "offVelocity": 64,
        "probability": 1,
        "position": 1,
        "isEnabled": false
      },
      {
        "pitch": 57,
        "duration": 0.25,
        "velocity": 100,
        "offVelocity": 64,
        "probability": 1,
        "position": 1,
        "isEnabled": true
      },
      {
        "pitch": 60,
        "duration": 0.25,
        "velocity": 100,
        "offVelocity": 64,
        "probability": 1,
        "position": 1.25,
        "isEnabled": true
      },
      {
        "pitch": 64,
        "duration": 0.25,
        "velocity": 100,
        "offVelocity": 64,
        "probability": 1,
        "position": 1.5,
        "isEnabled": true
      },
      {
        "pitch": 67,
        "duration": 0.25,
        "velocity": 100,
        "offVelocity": 64,
        "probability": 1,
        "position": 1.75,
        "isEnabled": true
      },
      {
        "pitch": 0,
        "duration": 1,
        "velocity": 100,
        "offVelocity": 64,
        "probability": 1,
        "position": 2,
        "isEnabled": false
      },
      {
        "pitch": 59,
        "duration": 0.25,
        "velocity": 100,
        "offVelocity": 64,
        "probability": 1,
        "position": 2,
        "isEnabled": true
      },
      {
        "pitch": 64,
        "duration": 0.25,
        "velocity": 100,
        "offVelocity": 64,
        "probability": 1,
        "position": 2.25,
        "isEnabled": true
      },
      {
        "pitch": 60,
        "duration": 0.25,
        "velocity": 100,
        "offVelocity": 64,
        "probability": 1,
        "position": 2.5,
        "isEnabled": true
      },
      {
        "pitch": 65,
        "duration": 0.25,
        "velocity": 100,
        "offVelocity": 64,
        "probability": 1,
        "position": 2.75,
        "isEnabled": true
      },
      {
        "pitch": 0,
        "duration": 1,
        "velocity": 100,
        "offVelocity": 64,
        "probability": 1,
        "position": 3,
        "isEnabled": false
      },
      {
        "pitch": 59,
        "duration": 0.25,
        "velocity": 100,
        "offVelocity": 64,
        "probability": 1,
        "position": 3,
        "isEnabled": true
      },
      {
        "pitch": 59,
        "duration": 0.25,
        "velocity": 100,
        "offVelocity": 64,
        "probability": 1,
        "position": 3.25,
        "isEnabled": true
      },
      {
        "pitch": 64,
        "duration": 0.25,
        "velocity": 100,
        "offVelocity": 64,
        "probability": 1,
        "position": 3.5,
        "isEnabled": true
      },
      {
        "pitch": 67,
        "duration": 0.25,
        "velocity": 100,
        "offVelocity": 64,
        "probability": 1,
        "position": 3.75,
        "isEnabled": true
      }
    ]
  },
  "riff1": {
    "name": "riff1",
    "duration": 6,
    "notes": [
      {
        "pitch": 62,
        "duration": 0.25,
        "velocity": 100,
        "offVelocity": 64,
        "probability": 1,
        "position": 0,
        "isEnabled": true
      },
      {
        "pitch": 64,
        "duration": 0.25,
        "velocity": 100,
        "offVelocity": 64,
        "probability": 1,
        "position": 0.25,
        "isEnabled": true
      },
      {
        "pitch": 65,
        "duration": 0.25,
        "velocity": 100,
        "offVelocity": 64,
        "probability": 1,
        "position": 0.5,
        "isEnabled": true
      },
      {
        "pitch": 62,
        "duration": 0.75,
        "velocity": 100,
        "offVelocity": 64,
        "probability": 1,
        "position": 0.75,
        "isEnabled": true
      },
      {
        "pitch": 62,
        "duration": 0.75,
        "velocity": 100,
        "offVelocity": 64,
        "probability": 1,
        "position": 1.5,
        "isEnabled": true
      },
      {
        "pitch": 65,
        "duration": 0.25,
        "velocity": 100,
        "offVelocity": 64,
        "probability": 1,
        "position": 2.25,
        "isEnabled": true
      },
      {
        "pitch": 64,
        "duration": 0.25,
        "velocity": 100,
        "offVelocity": 64,
        "probability": 1,
        "position": 2.5,
        "isEnabled": true
      },
      {
        "pitch": 65,
        "duration": 0.25,
        "velocity": 100,
        "offVelocity": 64,
        "probability": 1,
        "position": 2.75,
        "isEnabled": true
      },
      {
        "pitch": 64,
        "duration": 0.25,
        "velocity": 100,
        "offVelocity": 64,
        "probability": 1,
        "position": 3,
        "isEnabled": true
      },
      {
        "pitch": 62,
        "duration": 0.25,
        "velocity": 100,
        "offVelocity": 64,
        "probability": 1,
        "position": 3.25,
        "isEnabled": true
      },
      {
        "pitch": 60,
        "duration": 0.25,
        "velocity": 100,
        "offVelocity": 64,
        "probability": 1,
        "position": 3.5,
        "isEnabled": true
      },
      {
        "pitch": 62,
        "duration": 0.25,
        "velocity": 100,
        "offVelocity": 64,
        "probability": 1,
        "position": 3.75,
        "isEnabled": true
      },
      {
        "pitch": 64,
        "duration": 0.25,
        "velocity": 100,
        "offVelocity": 64,
        "probability": 1,
        "position": 4,
        "isEnabled": true
      },
      {
        "pitch": 60,
        "duration": 0.75,
        "velocity": 100,
        "offVelocity": 64,
        "probability": 1,
        "position": 4.25,
        "isEnabled": true
      },
      {
        "pitch": 60,
        "duration": 1,
        "velocity": 100,
        "offVelocity": 64,
        "probability": 1,
        "position": 5,
        "isEnabled": true
      }
    ]
  },
  "riff2": {
    "name": "riff2",
    "duration": 5.25,
    "notes": [
      {
        "pitch": 62,
        "duration": 0.25,
        "velocity": 100,
        "offVelocity": 64,
        "probability": 1,
        "position": 0,
        "isEnabled": true
      },
      {
        "pitch": 64,
        "duration": 0.25,
        "velocity": 100,
        "offVelocity": 64,
        "probability": 1,
        "position": 0.25,
        "isEnabled": true
      },
      {
        "pitch": 65,
        "duration": 0.25,
        "velocity": 100,
        "offVelocity": 64,
        "probability": 1,
        "position": 0.5,
        "isEnabled": true
      },
      {
        "pitch": 62,
        "duration": 0.75,
        "velocity": 100,
        "offVelocity": 64,
        "probability": 1,
        "position": 0.75,
        "isEnabled": true
      },
      {
        "pitch": 62,
        "duration": 0.75,
        "velocity": 100,
        "offVelocity": 64,
        "probability": 1,
        "position": 1.5,
        "isEnabled": true
      },
      {
        "pitch": 65,
        "duration": 0.25,
        "velocity": 100,
        "offVelocity": 64,
        "probability": 1,
        "position": 2.25,
        "isEnabled": true
      },
      {
        "pitch": 64,
        "duration": 0.25,
        "velocity": 100,
        "offVelocity": 64,
        "probability": 1,
        "position": 2.5,
        "isEnabled": true
      },
      {
        "pitch": 65,
        "duration": 0.25,
        "velocity": 100,
        "offVelocity": 64,
        "probability": 1,
        "position": 2.75,
        "isEnabled": true
      },
      {
        "pitch": 64,
        "duration": 0.25,
        "velocity": 100,
        "offVelocity": 64,
        "probability": 1,
        "position": 3,
        "isEnabled": true
      },
      {
        "pitch": 62,
        "duration": 0.25,
        "velocity": 100,
        "offVelocity": 64,
        "probability": 1,
        "position": 3.25,
        "isEnabled": true
      },
      {
        "pitch": 60,
        "duration": 0.25,
        "velocity": 100,
        "offVelocity": 64,
        "probability": 1,
        "position": 3.5,
        "isEnabled": true
      },
      {
        "pitch": 60,
        "duration": 0.75,
        "velocity": 100,
        "offVelocity": 64,
        "probability": 1,
        "position": 3.75,
        "isEnabled": true
      },
      {
        "pitch": 60,
        "duration": 0.75,
        "velocity": 100,
        "offVelocity": 64,
        "probability": 1,
        "position": 4.5,
        "isEnabled": true
      }
    ]
  },
  "dscale7": {
    "name": "dscale7",
    "duration": 4,
    "notes": [
      {
        "pitch": 62,
        "duration": 0.5,
        "velocity": 100,
        "offVelocity": 64,
        "probability": 1,
        "position": 0,
        "isEnabled": true
      },
      {
        "pitch": 63,
        "duration": 0.5,
        "velocity": 100,
        "offVelocity": 64,
        "probability": 1,
        "position": 0.5,
        "isEnabled": true
      },
      {
        "pitch": 66,
        "duration": 0.5,
        "velocity": 100,
        "offVelocity": 64,
        "probability": 1,
        "position": 1,
        "isEnabled": true
      },
      {
        "pitch": 68,
        "duration": 0.5,
        "velocity": 100,
        "offVelocity": 64,
        "probability": 1,
        "position": 1.5,
        "isEnabled": true
      },
      {
        "pitch": 69,
        "duration": 0.5,
        "velocity": 100,
        "offVelocity": 64,
        "probability": 1,
        "position": 2,
        "isEnabled": true
      },
      {
        "pitch": 71,
        "duration": 0.5,
        "velocity": 100,
        "offVelocity": 64,
        "probability": 1,
        "position": 2.5,
        "isEnabled": true
      },
      {
        "pitch": 73,
        "duration": 0.5,
        "velocity": 100,
        "offVelocity": 64,
        "probability": 1,
        "position": 3,
        "isEnabled": true
      },
      {
        "pitch": 74,
        "duration": 0.5,
        "velocity": 100,
        "offVelocity": 64,
        "probability": 1,
        "position": 3.5,
        "isEnabled": true
      }
    ]
  },
  "dscale5": {
    "name": "dscale5",
    "duration": 3,
    "notes": [
      {
        "pitch": 62,
        "duration": 0.5,
        "velocity": 100,
        "offVelocity": 64,
        "probability": 1,
        "position": 0,
        "isEnabled": true
      },
      {
        "pitch": 66,
        "duration": 0.5,
        "velocity": 100,
        "offVelocity": 64,
        "probability": 1,
        "position": 0.5,
        "isEnabled": true
      },
      {
        "pitch": 68,
        "duration": 0.5,
        "velocity": 100,
        "offVelocity": 64,
        "probability": 1,
        "position": 1,
        "isEnabled": true
      },
      {
        "pitch": 71,
        "duration": 0.5,
        "velocity": 100,
        "offVelocity": 64,
        "probability": 1,
        "position": 1.5,
        "isEnabled": true
      },
      {
        "pitch": 73,
        "duration": 0.5,
        "velocity": 100,
        "offVelocity": 64,
        "probability": 1,
        "position": 2,
        "isEnabled": true
      },
      {
        "pitch": 74,
        "duration": 0.5,
        "velocity": 100,
        "offVelocity": 64,
        "probability": 1,
        "position": 2.5,
        "isEnabled": true
      }
    ]
  },
  "ebscale7": {
    "name": "ebscale7",
    "duration": 4,
    "notes": [
      {
        "pitch": 63,
        "duration": 0.5,
        "velocity": 100,
        "offVelocity": 64,
        "probability": 1,
        "position": 0,
        "isEnabled": true
      },
      {
        "pitch": 66,
        "duration": 0.5,
        "velocity": 100,
        "offVelocity": 64,
        "probability": 1,
        "position": 0.5,
        "isEnabled": true
      },
      {
        "pitch": 67,
        "duration": 0.5,
        "velocity": 100,
        "offVelocity": 64,
        "probability": 1,
        "position": 1,
        "isEnabled": true
      },
      {
        "pitch": 68,
        "duration": 0.5,
        "velocity": 100,
        "offVelocity": 64,
        "probability": 1,
        "position": 1.5,
        "isEnabled": true
      },
      {
        "pitch": 69,
        "duration": 0.5,
        "velocity": 100,
        "offVelocity": 64,
        "probability": 1,
        "position": 2,
        "isEnabled": true
      },
      {
        "pitch": 72,
        "duration": 0.5,
        "velocity": 100,
        "offVelocity": 64,
        "probability": 1,
        "position": 2.5,
        "isEnabled": true
      },
      {
        "pitch": 74,
        "duration": 0.5,
        "velocity": 100,
        "offVelocity": 64,
        "probability": 1,
        "position": 3,
        "isEnabled": true
      },
      {
        "pitch": 75,
        "duration": 0.5,
        "velocity": 100,
        "offVelocity": 64,
        "probability": 1,
        "position": 3.5,
        "isEnabled": true
      }
    ]
  },
  "ebscale5": {
    "name": "ebscale5",
    "duration": 3,
    "notes": [
      {
        "pitch": 63,
        "duration": 0.5,
        "velocity": 100,
        "offVelocity": 64,
        "probability": 1,
        "position": 0,
        "isEnabled": true
      },
      {
        "pitch": 67,
        "duration": 0.5,
        "velocity": 100,
        "offVelocity": 64,
        "probability": 1,
        "position": 0.5,
        "isEnabled": true
      },
      {
        "pitch": 69,
        "duration": 0.5,
        "velocity": 100,
        "offVelocity": 64,
        "probability": 1,
        "position": 1,
        "isEnabled": true
      },
      {
        "pitch": 72,
        "duration": 0.5,
        "velocity": 100,
        "offVelocity": 64,
        "probability": 1,
        "position": 1.5,
        "isEnabled": true
      },
      {
        "pitch": 74,
        "duration": 0.5,
        "velocity": 100,
        "offVelocity": 64,
        "probability": 1,
        "position": 2,
        "isEnabled": true
      },
      {
        "pitch": 75,
        "duration": 0.5,
        "velocity": 100,
        "offVelocity": 64,
        "probability": 1,
        "position": 2.5,
        "isEnabled": true
      }
    ]
  },
  "d7mel": {
    "name": "d7mel",
    "duration": 16,
    "notes": [
      {
        "pitch": 61,
        "duration": 0.5,
        "velocity": 100,
        "offVelocity": 64,
        "probability": 1,
        "position": 0,
        "isEnabled": true
      },
      {
        "pitch": 62,
        "duration": 1,
        "velocity": 101,
        "offVelocity": 64,
        "probability": 1,
        "position": 0.5,
        "isEnabled": true
      },
      {
        "pitch": 62,
        "duration": 0.5,
        "velocity": 101,
        "offVelocity": 64,
        "probability": 1,
        "position": 1.5,
        "isEnabled": true
      },
      {
        "pitch": 71,
        "duration": 1,
        "velocity": 101,
        "offVelocity": 64,
        "probability": 1,
        "position": 2,
        "isEnabled": true
      },
      {
        "pitch": 68,
        "duration": 1,
        "velocity": 99,
        "offVelocity": 64,
        "probability": 1,
        "position": 3,
        "isEnabled": true
      },
      {
        "pitch": 73,
        "duration": 0.5,
        "velocity": 98,
        "offVelocity": 64,
        "probability": 1,
        "position": 4,
        "isEnabled": true
      },
      {
        "pitch": 71,
        "duration": 0.5,
        "velocity": 97,
        "offVelocity": 64,
        "probability": 1,
        "position": 4.5,
        "isEnabled": true
      },
      {
        "pitch": 73,
        "duration": 1,
        "velocity": 97,
        "offVelocity": 64,
        "probability": 1,
        "position": 5,
        "isEnabled": true
      },
      {
        "pitch": 71,
        "duration": 1,
        "velocity": 101,
        "offVelocity": 64,
        "probability": 1,
        "position": 6,
        "isEnabled": true
      },
      {
        "pitch": 68,
        "duration": 1,
        "velocity": 99,
        "offVelocity": 64,
        "probability": 1,
        "position": 7,
        "isEnabled": true
      },
      {
        "pitch": 69,
        "duration": 0.5,
        "velocity": 97,
        "offVelocity": 64,
        "probability": 1,
        "position": 8,
        "isEnabled": true
      },
      {
        "pitch": 68,
        "duration": 0.5,
        "velocity": 97,
        "offVelocity": 64,
        "probability": 1,
        "position": 8.5,
        "isEnabled": true
      },
      {
        "pitch": 69,
        "duration": 0.5,
        "velocity": 97,
        "offVelocity": 64,
        "probability": 1,
        "position": 9,
        "isEnabled": true
      },
      {
        "pitch": 66,
        "duration": 0.5,
        "velocity": 97,
        "offVelocity": 64,
        "probability": 1,
        "position": 9.5,
        "isEnabled": true
      },
      {
        "pitch": 62,
        "duration": 0.5,
        "velocity": 97,
        "offVelocity": 64,
        "probability": 1,
        "position": 10,
        "isEnabled": true
      },
      {
        "pitch": 61,
        "duration": 0.5,
        "velocity": 97,
        "offVelocity": 64,
        "probability": 1,
        "position": 10.5,
        "isEnabled": true
      },
      {
        "pitch": 62,
        "duration": 1,
        "velocity": 97,
        "offVelocity": 64,
        "probability": 1,
        "position": 11,
        "isEnabled": true
      },
      {
        "pitch": 69,
        "duration": 0.5,
        "velocity": 97,
        "offVelocity": 64,
        "probability": 1,
        "position": 12,
        "isEnabled": true
      },
      {
        "pitch": 68,
        "duration": 0.5,
        "velocity": 97,
        "offVelocity": 64,
        "probability": 1,
        "position": 12.5,
        "isEnabled": true
      },
      {
        "pitch": 66,
        "duration": 0.5,
        "velocity": 97,
        "offVelocity": 64,
        "probability": 1,
        "position": 13,
        "isEnabled": true
      },
      {
        "pitch": 62,
        "duration": 0.5,
        "velocity": 95,
        "offVelocity": 64,
        "probability": 1,
        "position": 13.5,
        "isEnabled": true
      },
      {
        "pitch": 61,
        "duration": 2,
        "velocity": 95,
        "offVelocity": 64,
        "probability": 1,
        "position": 14,
        "isEnabled": true
      }
    ]
  },
  "dscale5-delayRoot-1ca26583-beeb-4802-acda-2d3d2e425d53": {
    "name": "dscale5_ornamented",
    "duration": 7.505999999999999,
    "notes": [
      {
        "pitch": 62,
        "duration": 1.314758147480161,
        "velocity": 100,
        "offVelocity": 64,
        "probability": 1,
        "position": 0,
        "isEnabled": true
      },
      {
        "pitch": 66,
        "duration": 1.255279978273337,
        "velocity": 100,
        "offVelocity": 64,
        "probability": 1,
        "position": 1.314758147480161,
        "isEnabled": true
      },
      {
        "pitch": 68,
        "duration": 1.2434043812242335,
        "velocity": 100,
        "offVelocity": 64,
        "probability": 1,
        "position": 2.570038125753498,
        "isEnabled": true
      },
      {
        "pitch": 71,
        "duration": 1.2361574356767968,
        "velocity": 100,
        "offVelocity": 64,
        "probability": 1,
        "position": 3.8134425069777316,
        "isEnabled": true
      },
      {
        "pitch": 73,
        "duration": 1.2306124051359388,
        "velocity": 100,
        "offVelocity": 64,
        "probability": 1,
        "position": 5.049599942654528,
        "isEnabled": true
      },
      {
        "pitch": 74,
        "duration": 1.2257876522095312,
        "velocity": 100,
        "offVelocity": 64,
        "probability": 1,
        "position": 6.280212347790467,
        "isEnabled": true
      }
    ]
  }
} as const;
