/* AUTO-GENERATED FILE – DO NOT EDIT
 *
 * Written by node_src/alsParsing.ts whenever Ableton clips change.
 */
import type { AbletonClipRawData } from '@/io/abletonClips';

export const clipData: Record<string, AbletonClipRawData> = {
  "loop1": {
    "name": "loop1",
    "duration": 8,
    "notes": [
      {
        "pitch": 0,
        "duration": 1.25,
        "velocity": 100,
        "offVelocity": 64,
        "probability": 1,
        "position": 0,
        "isEnabled": false
      },
      {
        "pitch": 1,
        "duration": 0.125,
        "velocity": 100,
        "offVelocity": 64,
        "probability": 1,
        "position": 0,
        "isEnabled": false
      },
      {
        "pitch": 2,
        "duration": 0.125,
        "velocity": 100,
        "offVelocity": 64,
        "probability": 1,
        "position": 0,
        "isEnabled": false
      },
      {
        "pitch": 3,
        "duration": 0.125,
        "velocity": 100,
        "offVelocity": 64,
        "probability": 1,
        "position": 0,
        "isEnabled": false
      },
      {
        "pitch": 4,
        "duration": 0.125,
        "velocity": 100,
        "offVelocity": 64,
        "probability": 1,
        "position": 0,
        "isEnabled": false
      },
      {
        "pitch": 5,
        "duration": 0.125,
        "velocity": 100,
        "offVelocity": 64,
        "probability": 1,
        "position": 0,
        "isEnabled": false
      },
      {
        "pitch": 6,
        "duration": 0.125,
        "velocity": 100,
        "offVelocity": 64,
        "probability": 1,
        "position": 0,
        "isEnabled": false
      },
      {
        "pitch": 48,
        "duration": 0.33151041666666664,
        "velocity": 26,
        "offVelocity": 56,
        "probability": 1,
        "position": 0,
        "isEnabled": true
      },
      {
        "pitch": 55,
        "duration": 0.1299825174825175,
        "velocity": 35,
        "offVelocity": 38,
        "probability": 1,
        "position": 0.31498475482850485,
        "isEnabled": true
      },
      {
        "pitch": 52,
        "duration": 0.1354590721778222,
        "velocity": 34,
        "offVelocity": 26,
        "probability": 1,
        "position": 0.46266493922743923,
        "isEnabled": true
      },
      {
        "pitch": 55,
        "duration": 0.28634386446886445,
        "velocity": 48,
        "offVelocity": 46,
        "probability": 1,
        "position": 0.6063033320845821,
        "isEnabled": true
      },
      {
        "pitch": 52,
        "duration": 0.379926843989344,
        "velocity": 58,
        "offVelocity": 31,
        "probability": 1,
        "position": 0.9103927322677323,
        "isEnabled": true
      },
      {
        "pitch": 60,
        "duration": 0.41338505244755247,
        "velocity": 52,
        "offVelocity": 28,
        "probability": 1,
        "position": 1.2637011426073925,
        "isEnabled": true
      },
      {
        "pitch": 0,
        "duration": 1,
        "velocity": 100,
        "offVelocity": 64,
        "probability": 1,
        "position": 1.3333333333333333,
        "isEnabled": false
      },
      {
        "pitch": 59,
        "duration": 0.34020250582750583,
        "velocity": 53,
        "offVelocity": 38,
        "probability": 1,
        "position": 1.6313111367798867,
        "isEnabled": true
      },
      {
        "pitch": 60,
        "duration": 1.4994019001831502,
        "velocity": 67,
        "offVelocity": 19,
        "probability": 1,
        "position": 1.941619058025308,
        "isEnabled": true
      },
      {
        "pitch": 0,
        "duration": 1,
        "velocity": 100,
        "offVelocity": 64,
        "probability": 1,
        "position": 3.3333333333333335,
        "isEnabled": false
      },
      {
        "pitch": 59,
        "duration": 0.34766431485181487,
        "velocity": 42,
        "offVelocity": 30,
        "probability": 1,
        "position": 3.338565601065601,
        "isEnabled": true
      },
      {
        "pitch": 57,
        "duration": 0.3723214285714286,
        "velocity": 39,
        "offVelocity": 32,
        "probability": 1,
        "position": 3.692950278887779,
        "isEnabled": true
      },
      {
        "pitch": 55,
        "duration": 1.2957589285714286,
        "velocity": 36,
        "offVelocity": 26,
        "probability": 1,
        "position": 4.014904886779886,
        "isEnabled": true
      },
      {
        "pitch": 57,
        "duration": 0.34154153138528137,
        "velocity": 47,
        "offVelocity": 23,
        "probability": 1,
        "position": 5.322645843739593,
        "isEnabled": true
      },
      {
        "pitch": 55,
        "duration": 0.3894449300699301,
        "velocity": 56,
        "offVelocity": 53,
        "probability": 1,
        "position": 5.623315486596737,
        "isEnabled": true
      },
      {
        "pitch": 53,
        "duration": 0.6922434336496837,
        "velocity": 50,
        "offVelocity": 25,
        "probability": 1,
        "position": 5.975906125124875,
        "isEnabled": true
      },
      {
        "pitch": 55,
        "duration": 0.4185028513153513,
        "velocity": 34,
        "offVelocity": 47,
        "probability": 1,
        "position": 6.58939471986347,
        "isEnabled": true
      },
      {
        "pitch": 57,
        "duration": 0.3575174825174825,
        "velocity": 68,
        "offVelocity": 29,
        "probability": 1,
        "position": 6.966284236596737,
        "isEnabled": true
      },
      {
        "pitch": 55,
        "duration": 0.38753199925074927,
        "velocity": 59,
        "offVelocity": 43,
        "probability": 1,
        "position": 7.279748636779887,
        "isEnabled": true
      },
      {
        "pitch": 53,
        "duration": 0.2559708520646021,
        "velocity": 68,
        "offVelocity": 1,
        "probability": 1,
        "position": 7.6124895937395936,
        "isEnabled": true
      }
    ]
  },
  "debug1": {
    "name": "debug1",
    "duration": 4,
    "notes": [
      {
        "pitch": 0,
        "duration": 1,
        "velocity": 100,
        "offVelocity": 64,
        "probability": 1,
        "position": 0,
        "isEnabled": false
      },
      {
        "pitch": 55,
        "duration": 0.25,
        "velocity": 100,
        "offVelocity": 64,
        "probability": 1,
        "position": 0,
        "isEnabled": true
      },
      {
        "pitch": 57,
        "duration": 0.25,
        "velocity": 100,
        "offVelocity": 64,
        "probability": 1,
        "position": 0.25,
        "isEnabled": true
      },
      {
        "pitch": 59,
        "duration": 0.25,
        "velocity": 100,
        "offVelocity": 64,
        "probability": 1,
        "position": 0.5,
        "isEnabled": true
      },
      {
        "pitch": 60,
        "duration": 0.25,
        "velocity": 100,
        "offVelocity": 64,
        "probability": 1,
        "position": 0.75,
        "isEnabled": true
      },
      {
        "pitch": 0,
        "duration": 1,
        "velocity": 100,
        "offVelocity": 64,
        "probability": 1,
        "position": 1,
        "isEnabled": false
      },
      {
        "pitch": 57,
        "duration": 0.25,
        "velocity": 100,
        "offVelocity": 64,
        "probability": 1,
        "position": 1,
        "isEnabled": true
      },
      {
        "pitch": 60,
        "duration": 0.25,
        "velocity": 100,
        "offVelocity": 64,
        "probability": 1,
        "position": 1.25,
        "isEnabled": true
      },
      {
        "pitch": 64,
        "duration": 0.25,
        "velocity": 100,
        "offVelocity": 64,
        "probability": 1,
        "position": 1.5,
        "isEnabled": true
      },
      {
        "pitch": 67,
        "duration": 0.25,
        "velocity": 100,
        "offVelocity": 64,
        "probability": 1,
        "position": 1.75,
        "isEnabled": true
      },
      {
        "pitch": 0,
        "duration": 1,
        "velocity": 100,
        "offVelocity": 64,
        "probability": 1,
        "position": 2,
        "isEnabled": false
      },
      {
        "pitch": 59,
        "duration": 0.25,
        "velocity": 100,
        "offVelocity": 64,
        "probability": 1,
        "position": 2,
        "isEnabled": true
      },
      {
        "pitch": 64,
        "duration": 0.25,
        "velocity": 100,
        "offVelocity": 64,
        "probability": 1,
        "position": 2.25,
        "isEnabled": true
      },
      {
        "pitch": 60,
        "duration": 0.25,
        "velocity": 100,
        "offVelocity": 64,
        "probability": 1,
        "position": 2.5,
        "isEnabled": true
      },
      {
        "pitch": 65,
        "duration": 0.25,
        "velocity": 100,
        "offVelocity": 64,
        "probability": 1,
        "position": 2.75,
        "isEnabled": true
      },
      {
        "pitch": 0,
        "duration": 1,
        "velocity": 100,
        "offVelocity": 64,
        "probability": 1,
        "position": 3,
        "isEnabled": false
      },
      {
        "pitch": 59,
        "duration": 0.25,
        "velocity": 100,
        "offVelocity": 64,
        "probability": 1,
        "position": 3,
        "isEnabled": true
      },
      {
        "pitch": 59,
        "duration": 0.25,
        "velocity": 100,
        "offVelocity": 64,
        "probability": 1,
        "position": 3.25,
        "isEnabled": true
      },
      {
        "pitch": 64,
        "duration": 0.25,
        "velocity": 100,
        "offVelocity": 64,
        "probability": 1,
        "position": 3.5,
        "isEnabled": true
      },
      {
        "pitch": 67,
        "duration": 0.25,
        "velocity": 100,
        "offVelocity": 64,
        "probability": 1,
        "position": 3.75,
        "isEnabled": true
      }
    ]
  }
} as const;
